<svg width="24" height="24" viewBox="0 0 24 24" fill="none" xmlns="http://www.w3.org/2000/svg">
<g id="Property 1=outline">
<g id="vuesax/outline/frame">
<g id="frame">
<path id="Vector" d="M11.9999 22.7599C10.9099 22.7599 9.8299 22.4399 8.9799 21.8099L4.6799 18.5999C3.5399 17.7499 2.6499 15.9799 2.6499 14.5599V7.11994C2.6499 5.57994 3.7799 3.93994 5.2299 3.39994L10.2199 1.52994C11.2099 1.15994 12.7699 1.15994 13.7599 1.52994L18.7599 3.39994C20.2099 3.93994 21.3399 5.57994 21.3399 7.11994V14.5499C21.3399 15.9699 20.4499 17.7399 19.3099 18.5899L15.0099 21.7999C14.1699 22.4399 13.0899 22.7599 11.9999 22.7599ZM10.7499 2.93994L5.7599 4.80994C4.8999 5.12994 4.1499 6.20994 4.1499 7.12994V14.5599C4.1499 15.5099 4.8199 16.8399 5.5699 17.3999L9.8699 20.6099C11.0199 21.4699 12.9699 21.4699 14.1199 20.6099L18.4199 17.3999C19.1799 16.8299 19.8399 15.4999 19.8399 14.5599V7.11994C19.8399 6.20994 19.0899 5.12994 18.2299 4.79994L13.2399 2.92994C12.5799 2.68994 11.4199 2.68994 10.7499 2.93994Z" fill="#292D32"/>
<path id="Vector_2" d="M12 13.25C10.48 13.25 9.25 12.02 9.25 10.5C9.25 8.98 10.48 7.75 12 7.75C13.52 7.75 14.75 8.98 14.75 10.5C14.75 12.02 13.52 13.25 12 13.25ZM12 9.25C11.31 9.25 10.75 9.81 10.75 10.5C10.75 11.19 11.31 11.75 12 11.75C12.69 11.75 13.25 11.19 13.25 10.5C13.25 9.81 12.69 9.25 12 9.25Z" fill="#292D32"/>
<path id="Vector_3" d="M12 16.25C11.59 16.25 11.25 15.91 11.25 15.5V12.5C11.25 12.09 11.59 11.75 12 11.75C12.41 11.75 12.75 12.09 12.75 12.5V15.5C12.75 15.91 12.41 16.25 12 16.25Z" fill="#292D32"/>
</g>
</g>
</g>
</svg>
